<svg width="101" height="38" viewBox="0 0 101 38" fill="none" xmlns="http://www.w3.org/2000/svg">
<path d="M20.946 12C20.8513 10.8163 20.4074 9.89299 19.6143 9.23011C18.8331 8.56723 17.6435 8.23579 16.0455 8.23579C15.0275 8.23579 14.1929 8.36008 13.5419 8.60866C12.9027 8.84541 12.4292 9.17093 12.1214 9.58523C11.8137 9.99953 11.6539 10.473 11.642 11.0057C11.6184 11.4437 11.6953 11.8402 11.8729 12.1953C12.0623 12.5386 12.3582 12.8523 12.7607 13.1364C13.1631 13.4086 13.678 13.6572 14.3054 13.8821C14.9328 14.107 15.6785 14.3082 16.5426 14.4858L19.5256 15.125C21.5379 15.5511 23.2602 16.1134 24.6925 16.8118C26.1248 17.5102 27.2966 18.3329 28.2081 19.2798C29.1196 20.215 29.7884 21.2685 30.2145 22.4403C30.6525 23.6122 30.8774 24.8906 30.8892 26.2756C30.8774 28.6667 30.2796 30.6908 29.0959 32.348C27.9122 34.0052 26.2195 35.2659 24.0178 36.13C21.8279 36.9941 19.1941 37.4261 16.1165 37.4261C12.956 37.4261 10.1979 36.9586 7.84233 36.0234C5.49858 35.0883 3.67566 33.6501 2.37358 31.7088C1.08333 29.7557 0.432292 27.258 0.420455 24.2159H9.79545C9.85464 25.3286 10.1328 26.2637 10.63 27.0213C11.1271 27.7789 11.8255 28.353 12.7251 28.7436C13.6366 29.1342 14.7197 29.3295 15.9744 29.3295C17.0279 29.3295 17.9098 29.1993 18.62 28.9389C19.3303 28.6785 19.8688 28.3175 20.2358 27.8558C20.6027 27.3942 20.7921 26.8674 20.804 26.2756C20.7921 25.7192 20.6087 25.2339 20.2536 24.8196C19.9103 24.3935 19.3421 24.0147 18.549 23.6832C17.7559 23.34 16.6847 23.0204 15.3352 22.7244L11.7131 21.9432C8.49337 21.2448 5.95431 20.0788 4.09588 18.4453C2.24929 16.8 1.33191 14.5568 1.34375 11.7159C1.33191 9.40767 1.94744 7.38944 3.19034 5.66122C4.44508 3.92116 6.17921 2.56581 8.39276 1.59517C10.6181 0.624525 13.169 0.139203 16.0455 0.139203C18.9811 0.139203 21.5201 0.630444 23.6626 1.61293C25.8052 2.59541 27.4564 3.98035 28.6165 5.76776C29.7884 7.54332 30.3802 9.62074 30.392 12H20.946ZM34.6445 37V0.636363H60.8519V8.59091H44.5167V14.8409H59.5025V22.7955H44.5167V29.0455H60.7809V37H34.6445ZM100.975 18.8182C100.975 22.8665 100.188 26.2815 98.6138 29.0632C97.0395 31.8331 94.9147 33.9342 92.2395 35.3665C89.5643 36.7869 86.5814 37.4972 83.2907 37.4972C79.9763 37.4972 76.9815 36.781 74.3063 35.3487C71.6429 33.9046 69.5241 31.7976 67.9498 29.0277C66.3873 26.246 65.606 22.8428 65.606 18.8182C65.606 14.7699 66.3873 11.3608 67.9498 8.59091C69.5241 5.80918 71.6429 3.70809 74.3063 2.28764C76.9815 0.855349 79.9763 0.139203 83.2907 0.139203C86.5814 0.139203 89.5643 0.855349 92.2395 2.28764C94.9147 3.70809 97.0395 5.80918 98.6138 8.59091C100.188 11.3608 100.975 14.7699 100.975 18.8182ZM90.8191 18.8182C90.8191 16.6402 90.5291 14.8054 89.949 13.3139C89.3809 11.8106 88.5345 10.6742 87.41 9.90483C86.2973 9.12358 84.9242 8.73295 83.2907 8.73295C81.6571 8.73295 80.2781 9.12358 79.1536 9.90483C78.0409 10.6742 77.1945 11.8106 76.6145 13.3139C76.0463 14.8054 75.7623 16.6402 75.7623 18.8182C75.7623 20.9962 76.0463 22.8369 76.6145 24.3402C77.1945 25.8317 78.0409 26.968 79.1536 27.7493C80.2781 28.5187 81.6571 28.9034 83.2907 28.9034C84.9242 28.9034 86.2973 28.5187 87.41 27.7493C88.5345 26.968 89.3809 25.8317 89.949 24.3402C90.5291 22.8369 90.8191 20.9962 90.8191 18.8182Z" fill="#FFFFFF"/>
</svg>
